<svg xmlns="http://www.w3.org/2000/svg" width="1200" height="800" viewBox="0 0 1200 800" fill="none">
  <defs>
    <linearGradient id="bg" x1="146" y1="94" x2="1058" y2="720" gradientUnits="userSpaceOnUse">
      <stop stop-color="#FEF3C7"/>
      <stop offset="1" stop-color="#E0F2FE"/>
    </linearGradient>
    <linearGradient id="bud" x1="0" y1="0" x2="1" y2="1">
      <stop stop-color="#1E293B"/>
      <stop offset="1" stop-color="#334155"/>
    </linearGradient>
  </defs>
  <rect width="1200" height="800" rx="48" fill="url(#bg)"/>
  <rect x="132" y="102" width="936" height="596" rx="48" fill="#FFFFFF" fill-opacity="0.7"/>
  <g transform="translate(260 164)">
    <rect x="226" y="252" width="188" height="110" rx="36" fill="#FFFFFF" stroke="#CBD5E1" stroke-width="8"/>
    <path d="M244 306H396" stroke="#94A3B8" stroke-width="12" stroke-linecap="round"/>
    <path d="M174 174C218 174 254 210 254 254C254 298 218 334 174 334C130 334 94 298 94 254C94 210 130 174 174 174Z" fill="url(#bud)"/>
    <path d="M466 174C510 174 546 210 546 254C546 298 510 334 466 334C422 334 386 298 386 254C386 210 422 174 466 174Z" fill="url(#bud)"/>
    <rect x="150" y="314" width="48" height="98" rx="22" fill="#334155"/>
    <rect x="442" y="314" width="48" height="98" rx="22" fill="#334155"/>
  </g>
  <text x="186" y="620" fill="#B45309" font-family="Segoe UI, Arial, sans-serif" font-size="60" font-weight="700">Accessory Art</text>
  <text x="186" y="674" fill="#0369A1" font-family="Segoe UI, Arial, sans-serif" font-size="28">Bundled SVG storefront image</text>
</svg>
