<svg xmlns="http://www.w3.org/2000/svg" width="1200" height="800" viewBox="0 0 1200 800" fill="none">
  <defs>
    <linearGradient id="bg" x1="152" y1="80" x2="1040" y2="736" gradientUnits="userSpaceOnUse">
      <stop stop-color="#E0F2FE"/>
      <stop offset="1" stop-color="#FDE68A"/>
    </linearGradient>
    <linearGradient id="monitor" x1="0" y1="0" x2="1" y2="1">
      <stop stop-color="#1E293B"/>
      <stop offset="1" stop-color="#0F172A"/>
    </linearGradient>
    <linearGradient id="display" x1="0" y1="0" x2="1" y2="1">
      <stop stop-color="#38BDF8"/>
      <stop offset="1" stop-color="#22C55E"/>
    </linearGradient>
  </defs>
  <rect width="1200" height="800" rx="48" fill="url(#bg)"/>
  <rect x="136" y="106" width="928" height="588" rx="48" fill="#FFFFFF" fill-opacity="0.7"/>
  <circle cx="944" cy="182" r="116" fill="#FFFFFF" fill-opacity="0.28"/>
  <g transform="translate(258 184)">
    <rect x="56" y="0" width="572" height="346" rx="28" fill="url(#monitor)"/>
    <rect x="82" y="24" width="520" height="294" rx="18" fill="url(#display)"/>
    <rect x="304" y="346" width="76" height="46" rx="14" fill="#64748B"/>
    <path d="M158 406H526" stroke="#94A3B8" stroke-width="22" stroke-linecap="round"/>
    <rect x="200" y="78" width="142" height="22" rx="11" fill="#DBEAFE" fill-opacity="0.44"/>
    <rect x="200" y="116" width="220" height="18" rx="9" fill="#FFFFFF" fill-opacity="0.28"/>
    <rect x="200" y="162" width="250" height="110" rx="20" fill="#FFFFFF" fill-opacity="0.2"/>
  </g>
  <text x="192" y="618" fill="#075985" font-family="Segoe UI, Arial, sans-serif" font-size="58" font-weight="700">Notebook</text>
  <text x="192" y="672" fill="#B45309" font-family="Segoe UI, Arial, sans-serif" font-size="28">Bundled storefront art</text>
</svg>
