<svg xmlns="http://www.w3.org/2000/svg" width="1200" height="800" viewBox="0 0 1200 800" fill="none">
  <defs>
    <linearGradient id="bg" x1="140" y1="72" x2="1072" y2="760" gradientUnits="userSpaceOnUse">
      <stop stop-color="#E0F2FE"/>
      <stop offset="1" stop-color="#C7D2FE"/>
    </linearGradient>
    <linearGradient id="card" x1="332" y1="126" x2="858" y2="656" gradientUnits="userSpaceOnUse">
      <stop stop-color="#FFFFFF" stop-opacity="0.96"/>
      <stop offset="1" stop-color="#EFF6FF" stop-opacity="0.84"/>
    </linearGradient>
    <linearGradient id="phone" x1="0" y1="0" x2="1" y2="1">
      <stop stop-color="#1D4ED8"/>
      <stop offset="1" stop-color="#60A5FA"/>
    </linearGradient>
  </defs>
  <rect width="1200" height="800" rx="48" fill="url(#bg)"/>
  <circle cx="184" cy="640" r="154" fill="#FFFFFF" fill-opacity="0.44"/>
  <circle cx="1014" cy="136" r="128" fill="#FFFFFF" fill-opacity="0.36"/>
  <rect x="196" y="132" width="808" height="536" rx="40" fill="url(#card)"/>
  <rect x="440" y="162" width="320" height="476" rx="44" fill="#0F172A"/>
  <rect x="456" y="178" width="288" height="444" rx="34" fill="url(#phone)"/>
  <circle cx="600" cy="205" r="10" fill="#BFDBFE"/>
  <rect x="520" y="224" width="160" height="10" rx="5" fill="#DBEAFE" fill-opacity="0.72"/>
  <rect x="492" y="268" width="216" height="124" rx="24" fill="#FFFFFF" fill-opacity="0.2"/>
  <rect x="492" y="412" width="96" height="96" rx="22" fill="#FFFFFF" fill-opacity="0.28"/>
  <rect x="612" y="412" width="96" height="96" rx="22" fill="#FFFFFF" fill-opacity="0.18"/>
  <path d="M600 556C667.379 556 722 501.379 722 434C722 366.621 667.379 312 600 312C532.621 312 478 366.621 478 434C478 501.379 532.621 556 600 556Z" fill="#F8FAFC" fill-opacity="0.14"/>
  <path d="M278 250H418" stroke="#1D4ED8" stroke-width="24" stroke-linecap="round"/>
  <path d="M278 314H370" stroke="#60A5FA" stroke-width="18" stroke-linecap="round"/>
  <text x="278" y="580" fill="#1E3A8A" font-family="Segoe UI, Arial, sans-serif" font-size="62" font-weight="700">Smartphone</text>
  <text x="278" y="638" fill="#2563EB" font-family="Segoe UI, Arial, sans-serif" font-size="28">Local marketplace artwork</text>
</svg>
