<svg xmlns="http://www.w3.org/2000/svg" width="1200" height="800" viewBox="0 0 1200 800" fill="none">
  <defs>
    <linearGradient id="bg" x1="176" y1="92" x2="1024" y2="724" gradientUnits="userSpaceOnUse">
      <stop stop-color="#DBEAFE"/>
      <stop offset="1" stop-color="#A7F3D0"/>
    </linearGradient>
    <linearGradient id="device" x1="512" y1="182" x2="718" y2="612" gradientUnits="userSpaceOnUse">
      <stop stop-color="#1E293B"/>
      <stop offset="1" stop-color="#334155"/>
    </linearGradient>
    <linearGradient id="screen" x1="0" y1="0" x2="1" y2="1">
      <stop stop-color="#38BDF8"/>
      <stop offset="1" stop-color="#2563EB"/>
    </linearGradient>
  </defs>
  <rect width="1200" height="800" rx="48" fill="url(#bg)"/>
  <rect x="138" y="98" width="924" height="604" rx="46" fill="#FFFFFF" fill-opacity="0.72"/>
  <circle cx="232" cy="180" r="92" fill="#FFFFFF" fill-opacity="0.4"/>
  <circle cx="1010" cy="620" r="142" fill="#FFFFFF" fill-opacity="0.28"/>
  <g transform="translate(464 150) rotate(10 136 260)">
    <rect width="272" height="520" rx="42" fill="url(#device)"/>
    <rect x="18" y="18" width="236" height="484" rx="30" fill="url(#screen)"/>
    <rect x="66" y="54" width="140" height="14" rx="7" fill="#DBEAFE" fill-opacity="0.75"/>
    <circle cx="136" cy="94" r="54" fill="#FFFFFF" fill-opacity="0.16"/>
    <rect x="46" y="186" width="180" height="24" rx="12" fill="#FFFFFF" fill-opacity="0.32"/>
    <rect x="46" y="224" width="140" height="24" rx="12" fill="#FFFFFF" fill-opacity="0.24"/>
    <rect x="46" y="326" width="180" height="120" rx="26" fill="#FFFFFF" fill-opacity="0.18"/>
  </g>
  <path d="M214 268H392" stroke="#0F766E" stroke-width="22" stroke-linecap="round"/>
  <path d="M214 328H352" stroke="#0891B2" stroke-width="16" stroke-linecap="round"/>
  <text x="214" y="586" fill="#0F3A68" font-family="Segoe UI, Arial, sans-serif" font-size="62" font-weight="700">Phone Pick</text>
  <text x="214" y="642" fill="#0F766E" font-family="Segoe UI, Arial, sans-serif" font-size="28">Premium local product visual</text>
</svg>
