<svg xmlns="http://www.w3.org/2000/svg" width="1200" height="800" viewBox="0 0 1200 800" fill="none">
  <defs>
    <linearGradient id="bg" x1="152" y1="74" x2="1050" y2="740" gradientUnits="userSpaceOnUse">
      <stop stop-color="#DCFCE7"/>
      <stop offset="1" stop-color="#DBEAFE"/>
    </linearGradient>
    <linearGradient id="device" x1="0" y1="0" x2="1" y2="1">
      <stop stop-color="#F8FAFC"/>
      <stop offset="1" stop-color="#E2E8F0"/>
    </linearGradient>
    <linearGradient id="screen" x1="0" y1="0" x2="1" y2="1">
      <stop stop-color="#2563EB"/>
      <stop offset="1" stop-color="#14B8A6"/>
    </linearGradient>
  </defs>
  <rect width="1200" height="800" rx="48" fill="url(#bg)"/>
  <rect x="132" y="108" width="936" height="584" rx="48" fill="#FFFFFF" fill-opacity="0.7"/>
  <g transform="translate(250 150) rotate(-8 350 250)">
    <rect x="140" y="40" width="420" height="560" rx="34" fill="url(#device)" stroke="#CBD5E1" stroke-width="8"/>
    <rect x="166" y="68" width="368" height="504" rx="24" fill="url(#screen)"/>
    <circle cx="350" cy="96" r="10" fill="#E0F2FE"/>
    <rect x="220" y="138" width="260" height="24" rx="12" fill="#FFFFFF" fill-opacity="0.3"/>
    <rect x="202" y="198" width="296" height="168" rx="22" fill="#FFFFFF" fill-opacity="0.24"/>
    <rect x="202" y="390" width="120" height="120" rx="20" fill="#FFFFFF" fill-opacity="0.2"/>
    <rect x="348" y="390" width="150" height="120" rx="20" fill="#FFFFFF" fill-opacity="0.14"/>
  </g>
  <text x="176" y="218" fill="#047857" font-family="Segoe UI, Arial, sans-serif" font-size="60" font-weight="700">Tablet</text>
  <text x="176" y="274" fill="#0F766E" font-family="Segoe UI, Arial, sans-serif" font-size="28">Creative category card</text>
</svg>
