<svg xmlns="http://www.w3.org/2000/svg" width="1200" height="800" viewBox="0 0 1200 800" fill="none">
  <defs>
    <linearGradient id="bg" x1="180" y1="98" x2="1034" y2="716" gradientUnits="userSpaceOnUse">
      <stop stop-color="#DBEAFE"/>
      <stop offset="1" stop-color="#E9D5FF"/>
    </linearGradient>
    <linearGradient id="screen" x1="0" y1="0" x2="1" y2="1">
      <stop stop-color="#0F172A"/>
      <stop offset="1" stop-color="#334155"/>
    </linearGradient>
  </defs>
  <rect width="1200" height="800" rx="48" fill="url(#bg)"/>
  <rect x="132" y="116" width="936" height="568" rx="50" fill="#FFFFFF" fill-opacity="0.72"/>
  <circle cx="946" cy="164" r="126" fill="#FFFFFF" fill-opacity="0.25"/>
  <g transform="translate(194 186)">
    <rect x="0" y="38" width="812" height="416" rx="34" fill="#E2E8F0"/>
    <rect x="24" y="62" width="764" height="368" rx="24" fill="url(#screen)"/>
    <circle cx="406" cy="454" r="16" fill="#CBD5E1"/>
    <rect x="88" y="126" width="188" height="150" rx="24" fill="#38BDF8" fill-opacity="0.28"/>
    <rect x="302" y="126" width="214" height="26" rx="13" fill="#FFFFFF" fill-opacity="0.26"/>
    <rect x="302" y="168" width="168" height="18" rx="9" fill="#FFFFFF" fill-opacity="0.18"/>
    <rect x="302" y="220" width="396" height="132" rx="24" fill="#FFFFFF" fill-opacity="0.12"/>
  </g>
  <text x="184" y="640" fill="#1D4ED8" font-family="Segoe UI, Arial, sans-serif" font-size="60" font-weight="700">Tablet Display</text>
  <text x="184" y="694" fill="#7C3AED" font-family="Segoe UI, Arial, sans-serif" font-size="28">Premium placeholder image</text>
</svg>
