<svg xmlns="http://www.w3.org/2000/svg" width="1200" height="800" viewBox="0 0 1200 800" fill="none">
  <defs>
    <linearGradient id="bg" x1="144" y1="74" x2="1052" y2="722" gradientUnits="userSpaceOnUse">
      <stop stop-color="#E0F2FE"/>
      <stop offset="1" stop-color="#FEF3C7"/>
    </linearGradient>
    <linearGradient id="strap" x1="0" y1="0" x2="1" y2="1">
      <stop stop-color="#334155"/>
      <stop offset="1" stop-color="#0F172A"/>
    </linearGradient>
  </defs>
  <rect width="1200" height="800" rx="48" fill="url(#bg)"/>
  <rect x="132" y="100" width="936" height="600" rx="48" fill="#FFFFFF" fill-opacity="0.72"/>
  <g transform="translate(334 126) rotate(8 216 272)">
    <rect x="172" y="0" width="88" height="546" rx="44" fill="url(#strap)"/>
    <rect x="90" y="128" width="252" height="278" rx="64" fill="#1E293B"/>
    <rect x="114" y="152" width="204" height="230" rx="42" fill="#0F172A"/>
    <circle cx="216" cy="232" r="62" fill="#22C55E" fill-opacity="0.18"/>
    <path d="M216 198C245 198 268 221 268 250C268 279 245 302 216 302C187 302 164 279 164 250C164 221 187 198 216 198Z" stroke="#BBF7D0" stroke-width="10"/>
    <path d="M216 214V250L248 266" stroke="#F8FAFC" stroke-width="10" stroke-linecap="round" stroke-linejoin="round"/>
  </g>
  <text x="178" y="626" fill="#1D4ED8" font-family="Segoe UI, Arial, sans-serif" font-size="60" font-weight="700">Watch Studio</text>
  <text x="178" y="680" fill="#B45309" font-family="Segoe UI, Arial, sans-serif" font-size="28">Local icon-based art</text>
</svg>
