<svg xmlns="http://www.w3.org/2000/svg" width="1200" height="800" viewBox="0 0 1200 800" fill="none">
  <defs>
    <linearGradient id="bg" x1="138" y1="86" x2="1068" y2="736" gradientUnits="userSpaceOnUse">
      <stop stop-color="#FFF7ED"/>
      <stop offset="1" stop-color="#FCE7F3"/>
    </linearGradient>
    <linearGradient id="strap" x1="0" y1="0" x2="1" y2="1">
      <stop stop-color="#CBD5E1"/>
      <stop offset="1" stop-color="#94A3B8"/>
    </linearGradient>
    <linearGradient id="face" x1="0" y1="0" x2="1" y2="1">
      <stop stop-color="#0F172A"/>
      <stop offset="1" stop-color="#1E293B"/>
    </linearGradient>
  </defs>
  <rect width="1200" height="800" rx="48" fill="url(#bg)"/>
  <rect x="124" y="110" width="952" height="580" rx="50" fill="#FFFFFF" fill-opacity="0.72"/>
  <g transform="translate(314 146)">
    <rect x="170" y="0" width="102" height="508" rx="48" fill="url(#strap)"/>
    <rect x="114" y="134" width="214" height="242" rx="54" fill="url(#face)"/>
    <rect x="138" y="158" width="166" height="194" rx="36" fill="#111827"/>
    <circle cx="221" cy="214" r="42" fill="#38BDF8" fill-opacity="0.22"/>
    <path d="M221 198V214L248 232" stroke="#F8FAFC" stroke-width="10" stroke-linecap="round" stroke-linejoin="round"/>
    <rect x="170" y="282" width="102" height="18" rx="9" fill="#38BDF8" fill-opacity="0.45"/>
    <rect x="186" y="466" width="70" height="26" rx="13" fill="#CBD5E1"/>
  </g>
  <path d="M212 238H384" stroke="#FB923C" stroke-width="20" stroke-linecap="round"/>
  <path d="M212 292H324" stroke="#F97316" stroke-width="14" stroke-linecap="round"/>
  <text x="204" y="618" fill="#C2410C" font-family="Segoe UI, Arial, sans-serif" font-size="60" font-weight="700">Smartwatch</text>
  <text x="204" y="674" fill="#BE185D" font-family="Segoe UI, Arial, sans-serif" font-size="28">Activity and style artwork</text>
</svg>
